<svg width="28" height="28" viewBox="0 0 28 28" fill="none" xmlns="http://www.w3.org/2000/svg">
<path fill-rule="evenodd" clip-rule="evenodd" d="M13.9531 25.9062C20.4922 25.9062 25.9062 20.4805 25.9062 13.9531C25.9062 7.41406 20.4805 2 13.9414 2C7.41406 2 2 7.41406 2 13.9531C2 20.4805 7.42578 25.9062 13.9531 25.9062ZM15.4297 20.0117C15.1719 20.0117 14.9727 19.9414 14.7031 19.6836L10.332 15.5703C10.0977 15.3359 9.89844 15.1484 9.89844 14.7383C9.89844 14.2227 10.2617 13.9062 10.7656 13.9062H12.5234C13.7422 13.9062 14.5391 13.4375 14.7617 12.5H10.4961C10.1562 12.5 9.89844 12.2305 9.89844 11.9023C9.89844 11.5508 10.1562 11.293 10.4961 11.293H14.7266C14.5039 10.4258 13.7539 9.92188 12.6758 9.92188H10.5078C10.1211 9.92188 9.79297 9.58203 9.79297 9.19531C9.79297 8.78516 10.1211 8.48047 10.5078 8.48047H13.7539C14.1406 8.48047 14.5273 8.48047 14.9141 8.48047H17.457C17.8086 8.48047 18.0547 8.71484 18.0547 9.06641C18.0547 9.39453 17.8086 9.67578 17.457 9.67578H15.6992C16.0859 10.1094 16.3203 10.6719 16.4141 11.293H17.5273C17.8789 11.293 18.1133 11.5508 18.1133 11.9023C18.1133 12.2305 17.8789 12.5 17.5273 12.5H16.3906C16.1445 14.0234 14.9727 15.3477 12.5938 15.3477H12.2656L15.8398 18.6758C16.0156 18.8516 16.1562 19.0625 16.1562 19.3086C16.1562 19.7539 15.8281 20.0117 15.4297 20.0117Z" fill="black"/>
</svg>
