<svg width="28" height="28" viewBox="0 0 28 28" fill="none" xmlns="http://www.w3.org/2000/svg">
<g clip-path="url(#clip0_201_102024)">
<path d="M6.67969 24.5977H20.8945C23.3555 24.5977 24.5742 23.3789 24.5742 20.9648V6.65625C24.5742 4.24219 23.3555 3.02344 20.8945 3.02344H6.67969C4.23047 3.02344 3 4.23047 3 6.65625V20.9648C3 23.3906 4.23047 24.5977 6.67969 24.5977Z" fill="black" fill-opacity="0.85"/>
<path d="M15.2695 19.8516C15.0117 19.8516 14.8125 19.7812 14.543 19.5234L10.1719 15.4102C9.9375 15.1758 9.73828 14.9883 9.73828 14.5781C9.73828 14.0625 10.1016 13.7461 10.6055 13.7461H12.3633C13.582 13.7461 14.3789 13.2773 14.6016 12.3398H10.3359C9.99609 12.3398 9.73828 12.0703 9.73828 11.7422C9.73828 11.3906 9.99609 11.1328 10.3359 11.1328H14.5664C14.3438 10.2656 13.5938 9.76172 12.5156 9.76172H10.3477C9.96094 9.76172 9.63281 9.42188 9.63281 9.03516C9.63281 8.625 9.96094 8.32031 10.3477 8.32031H13.5938C13.9805 8.32031 14.3672 8.32031 14.7539 8.32031H17.2969C17.6484 8.32031 17.8945 8.55469 17.8945 8.90625C17.8945 9.23438 17.6484 9.51562 17.2969 9.51562H15.5391C15.9375 9.94922 16.1602 10.5117 16.2539 11.1328H17.3672C17.7188 11.1328 17.9531 11.3906 17.9531 11.7422C17.9531 12.0703 17.7188 12.3398 17.3672 12.3398H16.2305C15.9844 13.8633 14.8125 15.1875 12.4336 15.1875H12.1172L15.6797 18.5156C15.8555 18.6914 16.0078 18.9023 16.0078 19.1484C16.0078 19.5938 15.668 19.8516 15.2695 19.8516Z" fill="white"/>
</g>
<defs>
<clipPath id="clip0_201_102024">
<rect width="21.5742" height="21.5977" fill="white" transform="translate(3 3)"/>
</clipPath>
</defs>
</svg>
