<svg width="28" height="28" viewBox="0 0 28 28" fill="none" xmlns="http://www.w3.org/2000/svg">
<g clip-path="url(#clip0_201_102006)">
<path d="M13.9531 25.9062C20.4922 25.9062 25.9062 20.4805 25.9062 13.9531C25.9062 7.41406 20.4805 2 13.9414 2C7.41406 2 2 7.41406 2 13.9531C2 20.4805 7.42578 25.9062 13.9531 25.9062ZM13.9531 23.9141C8.42188 23.9141 4.00391 19.4844 4.00391 13.9531C4.00391 8.42188 8.41016 3.99219 13.9414 3.99219C19.4727 3.99219 23.9141 8.42188 23.9141 13.9531C23.9141 19.4844 19.4844 23.9141 13.9531 23.9141Z" fill="black" fill-opacity="0.85"/>
<path d="M15.3711 19.8242C15.7578 19.8242 16.0742 19.5664 16.0742 19.1445C16.0742 18.8984 15.9453 18.6992 15.7695 18.5352L12.3008 15.3008H12.6172C14.9258 15.3008 16.0625 14.0117 16.3086 12.5352H17.3984C17.7383 12.5352 17.9727 12.2773 17.9727 11.9609C17.9727 11.6211 17.7383 11.375 17.3984 11.375H16.3203C16.2383 10.7656 16.0039 10.2266 15.6289 9.80469H17.3398C17.6797 9.80469 17.9141 9.53516 17.9141 9.21875C17.9141 8.87891 17.6797 8.64453 17.3398 8.64453H14.8789C14.5039 8.64453 14.1289 8.64453 13.7539 8.64453H10.6016C10.2148 8.64453 9.91016 8.9375 9.91016 9.33594C9.91016 9.71094 10.2148 10.0391 10.6016 10.0391H12.7109C13.7539 10.0391 14.4805 10.5313 14.7031 11.375H10.5898C10.2617 11.375 10.0156 11.6211 10.0156 11.9609C10.0156 12.2773 10.2617 12.5352 10.5898 12.5352H14.7266C14.5156 13.4492 13.7422 13.9062 12.5586 13.9062H10.8477C10.3672 13.9062 10.0156 14.2109 10.0156 14.7031C10.0156 15.1016 10.2031 15.2891 10.4375 15.5117L14.6797 19.5078C14.9375 19.7539 15.125 19.8242 15.3711 19.8242Z" fill="black" fill-opacity="0.85"/>
</g>
<defs>
<clipPath id="clip0_201_102006">
<rect width="23.9062" height="23.918" fill="white" transform="translate(2 2)"/>
</clipPath>
</defs>
</svg>
